<svg width="130" height="130" viewBox="0 0 130 130" fill="none" xmlns="http://www.w3.org/2000/svg">
<path fill-rule="evenodd" clip-rule="evenodd" d="M5.5407 70.2475C11.1708 64.768 18.6449 60.9491 22.0348 59.3102L19.0017 85.0169L27.8393 83.3942L29.0634 75.0058C29.115 74.6112 29.2341 73.7243 29.4654 72.0189C33.6349 81.7726 36.5145 82.4199 39.1783 81.7816C41.4213 81.2441 44.6909 79.3943 47.8781 77.3282C49.6731 79.0307 52.4547 79.5894 56.0972 78.8876C60.5867 78.0224 64.5158 75.4605 68.3216 71.2375C69.8044 74.5502 73.1417 75.8775 78.0284 74.9359C81.7774 74.2135 85.1357 72.3079 88.3582 69.2391L87.93 72.3609L96.7257 70.746L98.7479 55.9285C100.575 54.7965 101.939 53.9131 102.634 54.1685C103.456 54.4712 103.227 55.4866 103.039 56.8796L102.168 63.1739C101.472 68.2192 103.889 70.0734 107.521 69.4943C107.95 69.4258 108.503 69.3082 109.155 69.1458L109.156 69.1454C112.736 68.2545 119.301 66.0232 124.744 63.2577C124.762 63.8663 124.772 64.4776 124.772 65.0909C124.772 97.704 98.0087 124.182 65.044 124.182C55.3132 124.182 46.1226 121.875 38.0004 117.783C44.9723 117.551 52.5178 116.712 60.5946 115.164C87.5748 109.993 107.183 96.8587 109.896 92.0692C111.635 88.999 102.495 99.1648 73.9606 104.384C49.4408 108.868 27.8365 109.224 10.0749 100.114C9.25535 99.6933 8.39475 99.1942 7.52859 98.6202C3.25278 95.5243 0.620387 92.2099 0.0745009 90.3426C-0.566235 88.1511 2.80889 94.2577 14.7624 96.9788C9.66927 89.1392 6.39773 80.0333 5.5407 70.2475ZM54.3783 68.6368C56.4279 67.4074 58.165 65.82 58.165 64.1631C58.165 62.563 57.4467 62.2178 56.6798 62.563C55.1572 63.2479 54.3783 65.6642 54.3783 68.6368ZM76.3096 64.6849C78.3592 63.4558 80.0965 61.8682 80.0965 60.2115C80.0965 58.6113 79.378 58.2662 78.611 58.6113C77.0885 59.2961 76.3096 61.7125 76.3096 64.6849ZM126.748 35.2453C128.504 37.0634 129.596 38.7199 129.925 39.8483C130.564 42.0329 127.212 35.9711 115.348 33.2374C119.288 39.3102 122.135 46.1439 123.614 53.4651C120.65 56.1955 117.593 58.6172 114.724 60.4771C113.446 61.2918 112.532 61.7801 112.221 61.868C110.93 62.2343 110.915 61.28 111.264 58.9759L112.221 52.3848C112.651 49.486 112.593 47.994 111.264 46.8126C110.246 45.9089 107.872 46.0807 106.148 47.0845C103.778 48.4648 102.654 49.1297 99.4253 51.0192L99.8607 47.5782L90.9781 50.136L89.1978 63.117C87.0368 65.4696 84.4439 67.5305 81.5139 68.0684C80.078 68.3321 78.9442 68.1505 78.0721 67.6283C83.348 64.1614 87.2136 60.9057 87.2136 57.2762C87.2136 52.2391 83.5667 50.5037 78.611 51.6582C72.2057 53.1506 67.4506 58.9582 67.4506 66.5087C67.4506 66.6275 67.4518 66.7451 67.4542 66.8623C65.2566 69.2997 62.5982 71.4665 59.5826 72.0201C58.1468 72.2837 57.0129 72.1021 56.1408 71.5801C61.4167 68.113 65.2824 64.8573 65.2824 61.2278C65.2824 56.1908 61.6354 54.4553 56.6798 55.6099C50.2744 57.1023 45.5193 62.9099 45.5193 70.4603C45.5193 71.7641 45.6642 72.93 45.948 73.9514C44.2966 74.7824 42.8207 75.306 41.9101 75.1425C40.2254 74.8399 39.2229 73.0649 37.3733 69.8158C43.0118 61.6511 46.3565 56.5202 46.3565 56.5202L35.3958 59.7144L29.9724 68.0091C29.9724 68.0091 30.1189 67.0623 31.7428 50.3007C22.1979 52.4779 13.2569 55.5227 5.60837 59.213C8.59338 29.356 34.0835 6 65.044 6C74.7912 6 83.9961 8.31495 92.1256 12.4183C85.123 12.6421 77.5451 13.4778 69.4308 15.0287C42.448 20.1863 22.8328 33.3114 20.1177 38.0995C18.3773 41.1689 27.5218 31.0076 56.0593 25.8027C80.5815 21.3305 102.186 20.9849 119.943 30.1046C122.339 31.3349 124.602 33.1021 126.38 34.8721L126.748 35.2453Z" fill="white"/>
</svg>
