<?xml version="1.0" encoding="UTF-8"?>
<!DOCTYPE svg PUBLIC "-//W3C//DTD SVG 1.1//EN" "http://www.w3.org/Graphics/SVG/1.1/DTD/svg11.dtd">
<!-- Creator: CorelDRAW -->
<svg xmlns="http://www.w3.org/2000/svg" xml:space="preserve" width="300px" height="120px" style="shape-rendering: geometricprecision; text-rendering: geometricprecision; fill-rule: evenodd; clip-rule: evenodd;" viewBox="0 0 297.787 125.241" xmlns:xlink="http://www.w3.org/1999/xlink">
 <defs>
  <style type="text/css">
   <![CDATA[
    .str0 {stroke:#231F20;stroke-width:0.856901}
    .fil2 {fill:none;fill-rule:nonzero}
    .fil0 {fill:#231F20;fill-rule:nonzero}
    .fil1 {fill:white;fill-rule:nonzero}
   ]]>
  </style>
 </defs>
 <g id="Layer_x0020_1">
  <metadata id="CorelCorpID_0Corel-Layer"/>
  <polygon class="fil0" points="11.3066,125.241 11.3066,11.4111 297.787,11.4111 297.787,125.241"/>
  <polygon class="fil1" points="0.426799,114.259 0.426799,0.428507 286.907,0.428507 286.907,114.259"/>
  <path class="fil2 str0" d="M0.426799 114.259l0 -113.83 286.48 0 0 113.83 -286.48 0zm0 -113.83l0 113.83z"/>
  <polygon class="fil0" points="129.277,69.9741 121.231,69.9741 121.231,60.465 147.861,60.465 147.861,69.9741 139.763,69.9741 139.763,101.494 129.277,101.494"/>
  <polygon class="fil0" points="173.186,85.3143 160.735,85.3143 160.735,101.494 150.249,101.494 150.249,60.4421 160.735,60.4421 160.735,75.7823 173.186,75.7823 173.186,60.4421 183.671,60.4421 183.671,101.494 173.186,101.494"/>
  <polygon class="fil0" points="186.767,60.465 210.063,60.465 210.063,69.9741 197.252,69.9741 197.252,75.9593 210.063,75.9593 210.063,85.8855 197.252,85.8855 197.252,91.9848 210.063,91.9848 210.063,101.494 186.767,101.494"/>
  <path class="fil0" d="M101.401 59.911c11.6508,0 21.1258,9.44606 21.1258,21.0972 0,11.6564 -9.44652,21.1029 -21.0968,21.1029 -11.6515,0 -21.0975,-9.44652 -21.0975,-21.1029 0,-11.6109 9.44037,-21.0457 21.0401,-21.1088l0 10.6059c-5.75109,0.0626306 -10.4516,4.74023 -10.4516,10.5029 0,5.80814 4.70618,10.5087 10.509,10.5087 5.80256,0 10.5083,-4.7006 10.5083,-10.5087 0,-5.80278 -4.81459,-10.5029 -10.5372,-10.5029l0 -10.5943z"/>
  <polygon class="fil0" points="214.889,16.7396 238.179,16.7396 238.179,26.2431 225.374,26.2431 225.374,32.2287 238.179,32.2287 238.179,42.1545 225.374,42.1545 225.374,48.2543 238.179,48.2543 238.179,57.7634 214.889,57.7634"/>
  <polygon class="fil0" points="200.051,16.711 212.445,16.711 198.8,37.4487 211.97,57.7634 199.4,57.7634 188.823,41.4406 188.823,57.7348 178.28,57.7348 178.28,16.6825 188.823,16.6825 188.823,34.4671"/>
  <polygon class="fil0" points="130.763,34.1988 124.937,42.8913 130.734,42.8856 130.734,51.7436 118.923,51.7379 114.822,57.7232 102.869,57.7232 131.139,16.6712 141.22,16.6825 141.22,57.7348 130.763,57.7348"/>
  <path class="fil0" d="M95.9981 44.7761l0 -9.86307 3.78699 0c2.66146,0 4.76881,-1.58797 4.76881,-4.16949 0,-3.1354 -2.34717,-4.52899 -4.76881,-4.52899l-3.81557 0 0 31.5203 -10.4857 0 0 -41.0523 10.4857 0 3.93525 0.0570508c9.5662,0 15.1634,5.15165 15.1634,14.004 0,8.37838 -6.72801,14.0326 -15.1064,14.0326l-3.96372 0z"/>
  <path class="fil0" d="M164.636 31.4919c0.0285823,-3.14144 -2.50705,-5.24879 -4.8262,-5.27737l-4.32333 0 0 31.5203 -10.5428 0 0 -41.0523 15.2545 0c9.5662,0 15.1634,5.2087 15.1634,14.061 0,6.21945 -3.50629,10.8854 -8.8464,12.9017l9.40632 14.0896 -12.2677 0 -8.13321 -12.5133 0 -8.49271 4.27221 -0.0112735c2.32485,-0.0285823 4.8549,-2.13593 4.82597,-5.27145l0.017195 0.0457773z"/>
  <path class="fil0" d="M261.39 31.4919c0.0284685,-3.14144 -2.50762,-5.24879 -4.82632,-5.27737l-4.32379 0 0 31.5203 -10.5423 0 0 -41.0523 15.2485 0c9.57224,0 15.1695,5.2087 15.1695,14.061 0,6.21945 -3.50663,10.8854 -8.85233,12.9017l9.41145 14.0896 -12.273 0 -8.12684 -12.5133 0 -8.49271 4.27198 -0.0112735c2.32428,-0.0285823 4.85399,-2.13593 4.8254,-5.27145l0.0177643 0.0457773z"/>
  <path class="fil0" d="M233.445 75.2796c0.0341622,-3.1354 -2.50158,-5.24287 -4.82632,-5.27703l-4.31764 0 0 31.5203 -10.5428 0 0 -41.0523 15.2488 0c9.5662,0 15.169,5.2087 15.169,14.0611 0,6.22503 -3.50663,10.8854 -8.85233,12.9017l9.41202 14.0895 -12.2731 0 -8.13321 -12.5131 0 -8.48725 4.27756 -0.0168533c2.31916,-0.028924 4.85478,-2.13639 4.8262,-5.27179l0.011729 0.0457773z"/>
  <path class="fil0" d="M68.356 75.2796c0.0345038,-3.1354 -2.50113,-5.24287 -4.82632,-5.27703l-4.3173 0 0 31.5203 -10.5431 0 0 -41.0523 15.249 0c9.56654,0 15.1694,5.2087 15.1694,14.0611 0,6.22503 -3.50709,10.8854 -8.85233,12.9017l9.4119 14.0895 -12.2734 0 -8.13276 -12.5131 0 -8.48725 4.2779 -0.0168533c2.31836,-0.028924 4.85444,-2.13639 4.82552,-5.27179l0.0116151 0.0457773z"/>
  <path class="fil0" d="M251.429 81.9792c-3.03815,-1.90773 -5.11704,-5.21474 -5.57424,-8.54418 -0.382502,-4.19204 1.18269,-7.60176 4.2779,-10.5086 3.1411,-2.94102 8.62982,-3.6722 13.1701,-2.7414 4.45463,0.993891 9.70353,4.96889 9.58909,12.6446l-9.62883 -0.0111596c-0.0454357,-1.62225 -0.0346177,-2.2276 -1.22813,-3.32432 -0.890949,-0.799394 -2.67865,-1.51327 -4.62055,0.222965 -3.06674,5.21998 4.58638,6.15682 10.0233,9.66903 3.16399,1.8845 5.14004,5.15735 5.60852,8.56115 0.382388,4.19796 -0.999585,7.96126 -4.10037,10.8686 -3.86101,3.62073 -9.67506,4.14615 -14.7754,3.1009 -4.13499,-1.26184 -9.05206,-4.46033 -8.87487,-13.5353l9.68588 0.0112735c0.051471,1.6161 0.0969067,2.94136 1.29076,4.03774 0.714331,1.09672 4.16915,2.0503 5.69403,-0.34834 2.68993,-5.12273 -5.25972,-6.60787 -10.5886,-10.1202l0.0513571 0.0173088z"/>
  <path class="fil0" d="M32.7293 91.6137c1.81059,-0.0627445 3.71274,-1.29634 3.87262,-3.6722 -0.171608,-2.38179 -2.06772,-3.56368 -3.87262,-3.62665l-3.20931 -0.00569369 -0.00603531 -8.49283 2.50147 -0.0682104c1.8049,-0.0627445 3.53556,-0.491366 3.69543,-2.86712 -0.177188,-2.38179 -1.89053,-2.82134 -3.69543,-2.88397l-2.53005 0.00557982 0 31.5203 -10.5484 0 0 -41.0523 16.6823 0.0112735c5.77955,0.0228886 9.82333,4.7745 9.82333,10.2688 0,3.54114 -1.83314,6.59068 -4.61462,8.3498 1.81059,0.953694 4.04935,2.53005 5.00305,4.58046 1.7647,3.90633 1.28507,8.57835 -0.908258,12.1533 -3.60388,5.30026 -9.08053,5.7397 -15.4028,5.68276l-0.011729 -9.92012 3.22104 0.0168533z"/>
  <path class="fil0" d="M72.6278 16.6712l8.92669 0 0.00603531 7.78419c-2.19344,-3.04943 -5.55181,-5.78525 -8.93272,-7.78419z"/>
  <path class="fil0" d="M18.9313 16.6712l8.44101 0c-5.62571,5.30561 -7.64151,14.2837 -6.85896,21.2342 1.19351,7.69867 6.06515,14.2781 14.0208,16.7454 6.63087,1.99906 13.5987,0.70226 18.4989,-3.10682 4.09479,-3.18687 6.57337,-8.80097 5.53974,-14.164 -2.9868,-9.98321 -11.6222,-7.37322 -12.6848,-4.92311 1.26776,-1.18224 3.46689,-1.89611 5.41436,-1.31365 2.89558,0.982618 5.363,3.80954 4.66598,8.70418 -1.05652,5.37416 -5.08299,9.20625 -10.9485,10.5428 -6.30542,1.3477 -12.8956,-1.33654 -16.0026,-5.59679 -1.61655,-2.1874 -4.73465,-6.64249 -3.42703,-15.3804 1.29668,-5.18012 3.62677,-9.61232 7.77895,-12.7478l7.51579 0.00603531c-12.365,7.6874 -10.0229,20.8402 -7.23019,23.9756 4.5061,5.86553 12.1187,5.68276 16.5626,2.66704 2.52436,-1.65026 3.95769,-5.0199 3.20407,-8.10395 -1.35373,-3.96941 -4.96319,-3.51267 -5.71726,-2.99841 0.639516,-0.0228886 4.26105,0.199621 3.91191,4.60335 -0.616171,2.50705 -2.36972,4.23167 -5.04279,4.7515 -4.36353,0.696566 -9.30349,-1.94758 -10.2057,-7.0193 -0.754073,-3.8035 0.285596,-13.7867 12.9643,-17.1848 6.75056,-1.81617 17.4532,-0.051471 21.7597,3.15271 4.64355,2.94102 8.29833,6.62484 10.4628,11.3711l0 25.8544 -6.19656 0c1.62783,-1.75343 5.90527,-11.0569 2.10746,-20.7601 -2.34774,-5.85995 -6.83608,-11.2567 -13.8895,-13.9124 -6.76787,-2.65577 -12.2855,-1.35943 -12.2795,-1.33654 -4.34577,0.719455 -10.7199,3.838 -10.8681,10.7713 -0.0457773,2.20426 1.11357,4.93996 3.89506,6.15682 4.14057,1.81014 7.93849,-1.77643 5.75667,-4.73465 0.719455,1.6506 -0.502525,4.64867 -3.77492,4.22051 -2.29023,-0.296869 -3.79234,-2.44407 -3.87228,-4.63751 -0.0971344,-2.56421 1.51373,-6.00821 5.72865,-7.71029 1.61644,-0.713875 4.39758,-1.43333 9.23471,-0.822283 7.44154,1.31923 12.2967,6.3167 14.8605,11.9995 4.04366,10.337 -1.10754,18.3783 -3.32352,20.7717l-7.83031 -0.00603531c3.05546,-2.70109 9.29222,-10.6741 5.11715,-20.9545 -2.14721,-5.41971 -7.86458,-9.49754 -13.7413,-9.41202 -3.42111,-0.154185 -6.41349,0.907916 -8.12126,3.35279 -1.32492,2.22157 -1.13646,5.88808 1.59924,6.49343 -1.6563,-1.07941 -3.25554,-6.76217 3.8437,-8.26417 13.9012,-1.55916 20.029,19.8522 3.44355,28.7845l-34.3127 0 0 -41.0692z"/>
  <path class="fil0" d="M7.7145 23.5017l0 -4.96889 1.38186 0.00603531 1.02839 0.00557982c0.393776,0.0285823 0.719569,0.114102 0.976241,0.257127 0.445475,0.245398 0.66286,0.639516 0.66286,1.18793 0,0.416551 -0.114557,0.719455 -0.348682,0.902223 -0.233897,0.188461 -0.519834,0.296869 -0.856559,0.337067 0.308143,0.0626306 0.542381,0.159879 0.70226,0.285596 0.291631,0.233783 0.439895,0.605353 0.439895,1.10799l0 0.445475 0.0855193 0.433859 -1.24453 0c-0.0405391,-0.159879 -0.0634277,-0.388424 -0.0747013,-0.685293 -0.0173088,-0.302563 -0.039742,-0.502639 -0.0799394,-0.611047 -0.0683243,-0.171608 -0.188006,-0.296869 -0.365193,-0.365535 -0.0975899,-0.0401975 -0.245854,-0.0687798 -0.445475,-0.0799394l-0.560032 -0.0173088 0 1.75912 -1.30192 0zm2.37575 -3.98627c-0.182768,-0.0686659 -0.433859,-0.108522 -0.753617,-0.108522l-0.320213 1.44506 0.508561 0c0.302563,0 0.536346,-0.0630861 0.70784,-0.182768 0.171608,-0.120137 0.257127,-0.320213 0.257127,-0.588614 0,-0.273981 -0.13699,-0.462328 -0.399697,-0.565156zm2.72409 4.70572c-0.867719,0.845627 -1.91297,1.26821 -3.13506,1.26821 -1.2566,0 -2.3187,-0.434201 -3.18722,-1.29634 -0.862481,-0.862481 -1.29042,-1.92504 -1.29042,-3.18722 0,-1.30761 0.462442,-2.39272 1.39928,-3.26123 0.873299,-0.810668 1.90169,-1.2164 3.07835,-1.2164 1.23895,0 2.29581,0.439895 3.16957,1.31365 0.873413,0.873754 1.31365,1.93073 1.31365,3.16399 0,1.27379 -0.451168,2.34762 -1.34815,3.21534zm-5.76794 -5.80802c-0.708637,0.73107 -1.06814,1.59355 -1.06814,2.59268 0,1.03967 0.365535,1.919 1.09068,2.64449 0.719797,0.725149 1.58797,1.09068 2.61033,1.09068 1.01632,0 1.89008,-0.365535 2.60965,-1.09626 0.719455,-0.731184 1.07975,-1.61097 1.07975,-2.63891 0,-0.993436 -0.354262,-1.86161 -1.07417,-2.59268 -0.725149,-0.748037 -1.5989,-1.11961 -2.61523,-1.11961 -1.02839,0 -1.90773,0.37157 -2.63288,1.11961z"/>
 </g>
</svg>