<svg xmlns="http://www.w3.org/2000/svg" viewBox="0 0 175.2 175.2"><defs><style>.cls-1{fill:#9bbac2;}</style></defs><path class="cls-1" d="M87.6 175.2A87.6 87.6 0 1 0 0 87.6a87.6 87.6 0 0 0 87.6 87.6zm57.9-127.6A59.8 59.8 0 0 1 159.7 75q3.8 16.1-1.7 34.8c-4.1 12.5-10.2 23-18.6 31.5a86.8 86.8 0 0 1-30.3 20 70.6 70.6 0 0 1-16.5 4.3 55.7 55.7 0 0 1-18.9-.3 90.9 90.9 0 0 1-13.4-3.6 89.8 89.8 0 0 1-9.8-4.1 82.6 82.6 0 0 1-9.9-5.6 31.7 31.7 0 0 1-7.3-6.3 129.5 129.5 0 0 0 11.2 7.6 58.9 58.9 0 0 0 13.2 5.8 66.8 66.8 0 0 0 26.3 2.2 70.2 70.2 0 0 0 23-7.1 87.3 87.3 0 0 0 31.9-28.4 70.3 70.3 0 0 0 7.5-14.6A56.5 56.5 0 0 0 150 94a44.1 44.1 0 0 0-3.3-18.4 38.5 38.5 0 0 0-8.1-12.5 36.9 36.9 0 0 0-12.4-8.3 34.2 34.2 0 0 0-19.1-1.8A48.9 48.9 0 0 0 90 59.8a46.9 46.9 0 0 0-12 10.3c-1.2 1.5-2.6 3.6-4.2 6.1a54.3 54.3 0 0 1-5.7 7.3 16 16 0 0 1-7.1 4.6c-2.6.7-5.3 0-8.3-2.1a9.4 9.4 0 0 1-4.3-8 20 20 0 0 1 2-9.2 42.1 42.1 0 0 1 4.3-7.6A79.8 79.8 0 0 1 69 45.5a68.6 68.6 0 0 1 19-11.1 63.6 63.6 0 0 1 12.1-3.1l5.7-.6 8 .2a35.1 35.1 0 0 1 7.1 1.2 53.7 53.7 0 0 1 24.6 15.5zM14.2 102.7L13 96.3a50.4 50.4 0 0 1-.9-12.7 65.7 65.7 0 0 1 1.6-12.3 69.8 69.8 0 0 1 5.1-14.9A88.1 88.1 0 0 1 37 31.2a82.1 82.1 0 0 1 26.5-17 82.4 82.4 0 0 1 14-3.9l7.1-.9c9.6.2 18 1.3 25.1 3.5a79.2 79.2 0 0 1 19.5 9l3.5 2.1a14.5 14.5 0 0 1 3.1 2.6 70.2 70.2 0 0 0-20.1-10 53.9 53.9 0 0 0-12.4-2.2 82.4 82.4 0 0 0-13.7.3c-13.6 1.8-24.9 6.1-34.2 13a88.1 88.1 0 0 0-22.8 24.8A60.6 60.6 0 0 0 26 66.6a55.1 55.1 0 0 0-2.8 16.7 43.9 43.9 0 0 0 3.4 17.5 38.5 38.5 0 0 0 10.5 14.3 35.2 35.2 0 0 0 16.4 7.9c6.4 1.3 13.2.5 20.5-2.2a52 52 0 0 0 23.7-18.5l4.1-6.2a22 22 0 0 1 5.7-5.9 10.4 10.4 0 0 1 8.1-1.7 9.7 9.7 0 0 1 6.3 3 12.8 12.8 0 0 1 2.9 9.3 23.2 23.2 0 0 1-3 8.9 73.9 73.9 0 0 1-4.9 7.4 69.8 69.8 0 0 1-15.9 16 68 68 0 0 1-22 10.1 60.2 60.2 0 0 1-10.6 1.9 41.5 41.5 0 0 1-11.6-.5Q41 141.2 31 131.9a59.5 59.5 0 0 1-15.1-23 31.8 31.8 0 0 1-1.7-6.2z"/></svg>