<?xml version="1.0" encoding="UTF-8" standalone="no"?>
<!-- Created with Inkscape (http://www.inkscape.org/) -->
<svg xmlns:dc="http://purl.org/dc/elements/1.1/" xmlns:cc="http://creativecommons.org/ns#" xmlns:rdf="http://www.w3.org/1999/02/22-rdf-syntax-ns#" xmlns:svg="http://www.w3.org/2000/svg" xmlns="http://www.w3.org/2000/svg" xmlns:sodipodi="http://sodipodi.sourceforge.net/DTD/sodipodi-0.dtd" xmlns:inkscape="http://www.inkscape.org/namespaces/inkscape" width="200" height="90" id="svg2" version="1.1" inkscape:version="0.47 r22583" sodipodi:docname="New document 1">
  <defs id="defs4">
    <inkscape:perspective sodipodi:type="inkscape:persp3d" inkscape:vp_x="0 : 526.18109 : 1" inkscape:vp_y="0 : 1000 : 0" inkscape:vp_z="744.09448 : 526.18109 : 1" inkscape:persp3d-origin="372.04724 : 350.78739 : 1" id="perspective10"/>
    <inkscape:perspective id="perspective2824" inkscape:persp3d-origin="0.5 : 0.33333333 : 1" inkscape:vp_z="1 : 0.5 : 1" inkscape:vp_y="0 : 1000 : 0" inkscape:vp_x="0 : 0.5 : 1" sodipodi:type="inkscape:persp3d"/>
  </defs>
  <sodipodi:namedview id="base" pagecolor="#ffffff" bordercolor="#666666" borderopacity="1.0" inkscape:pageopacity="0.0" inkscape:pageshadow="2" inkscape:zoom="5.6" inkscape:cx="138.4033" inkscape:cy="47.234467" inkscape:document-units="px" inkscape:current-layer="layer1" showgrid="false" inkscape:window-width="1920" inkscape:window-height="1000" inkscape:window-x="-8" inkscape:window-y="-8" inkscape:window-maximized="1"/>
  <metadata id="metadata7">
    <rdf:RDF>
      <cc:Work rdf:about="">
        <dc:format>image/svg+xml</dc:format>
        <dc:type rdf:resource="http://purl.org/dc/dcmitype/StillImage"/>
        <dc:title/>
      </cc:Work>
    </rdf:RDF>
  </metadata>
  <g inkscape:label="Layer 1" inkscape:groupmode="layer" id="layer1" transform="translate(1519.5714,-2505.9335)">
    <g id="g2848" transform="matrix(0.06576384,0,0,0.06576384,-1418.7456,2424.6793)">
      <path id="path2844" d="m 955.42861,2548.4848 c 0,-36.3492 -0.3496,-50.116 -1.4947,-58.8507 -5.4532,-41.5993 -21.1105,-66.0149 -52.3597,-81.6482 -17.7989,-8.9045 -32.0168,-12.9835 -85.2603,-24.4609 -42.55114,-9.1725 -66.24064,-15.1486 -88.38534,-22.2968 -55.6853,-17.9749 -103.4503,-42.6538 -150.1289,-77.5675 -33.3588,-24.951 -59.1447,-48.8905 -94.8972,-88.1018 -3.9257,-4.3055 -19.611,-24.0787 -26.6737,-33.6253 -57.5479,-77.7875 -94.645,-168.3903 -107.6849,-263 -4.0814,-29.6121 -4.6153,-38.7505 -4.6153,-79 0,-40.2495 0.5339,-49.3879 4.6153,-79 13.8292,-100.3365 55.7093,-198.2513 118.4901,-277.0275 41.3623,-51.9007 91.9809,-97.1268 146.8946,-131.2458 77.8033,-48.3408 161.2492,-75.9608 256.50004,-84.8998 20.2411,-1.8996 78.417,-1.5963 99,0.5161 74.81449,7.6781 137.79329,25.6196 202.49999,57.6884 57.5118,28.5031 105.0954,62.6186 150.5703,107.9527 92.353,92.067 150.1422,211.5117 164.9085,340.8498 2.7346,23.953 4.3723,57.4164 3.6052,73.6661 -2.8284,59.9117 -21.8121,145.434 -44.9497,202.5 l -3.4463,8.5 -195.1589,0.2525 -195.1589,0.2525 8.3149,-6.2135 c 10.8284,-8.0918 33.0634,-30.3728 44.1999,-44.2915 47.0886,-58.8524 69.5418,-122.8549 64.7257,-184.5 -3.6807,-47.113 -17.4778,-88.2388 -41.9529,-125.0512 -58.1548,-87.4696 -161.61199,-129.114 -265.65779,-106.9348 -52.70864,11.2359 -107.05464,44.7962 -140.86104,86.986 -16.4764,20.5622 -33.3153,50.275 -42.1398,74.3567 -4.5182,12.3301 -9.8232,32.8985 -12.0302,46.6433 -2.2338,13.912 -3.1004,52.9641 -1.5252,68.7315 8.4628,84.7075 53.453,149.0118 133.5562,190.8911 35.24974,18.4292 62.12504,27.0836 142.50004,45.888 89.31209,20.8954 149.31399,47.6974 203.44049,90.8742 13.2216,10.5468 40.0136,37.4091 50.4829,50.6152 42.0321,53.02 68.036,118.1341 77.4754,194 3.4105,27.4101 3.8191,37.3531 4.3044,104.75 l 0.4987,69.25 -161.101,0 -161.10089,0 0,-47.4488 z" style="fill:#e02e2a;fill-opacity:1"/>
      <path d="m 1436.7843,2584.3494 c 9.5775,-2.4694 17.4332,-7.1233 25.2492,-14.9586 11.7975,-11.8264 16.8312,-24.8994 16.7331,-43.4572 -0.045,-8.5213 -0.549,-12.0076 -2.6743,-18.5 -8.2866,-25.3134 -30.7597,-40.7211 -57.1637,-39.1918 -14.9432,0.8655 -27.2461,6.3581 -37.4462,16.7178 -10.7642,10.9326 -16.1842,24.9895 -16.1842,41.974 0,5.7722 0.6691,12.301 1.6504,16.104 5.2061,20.1758 20.8402,36.1319 40.48,41.3133 7.4165,1.9567 21.7636,1.956 29.3557,0 z m -28.3577,10.1654 c -26.2702,-5.509 -46.4988,-24.8196 -53.5096,-51.0812 -2.0996,-7.865 -2.1179,-25.0231 -0.035,-33 0.8616,-3.3 3.4252,-9.825 5.697,-14.5 8.0648,-16.5967 25.7244,-30.6034 44.8497,-35.5725 8.5746,-2.2278 24.4304,-2.2497 33,-0.046 14.2491,3.6647 29.0744,12.9274 37.4965,23.4273 26.2631,32.7424 17.5661,80.5381 -18.6383,102.4295 -13.5014,8.1637 -33.4615,11.5718 -48.8602,8.3426 z" style="fill:#e02e2a;fill-opacity:1" id="path2840"/>
      <path d="m 1436.1617,2520.6085 c 8.4437,-4.4628 8.3883,-18.0168 -0.09,-22.0401 -2.6222,-1.2443 -6.4547,-1.6348 -16.044,-1.6348 l -12.5989,0 0,13.1182 0,13.1183 12.75,-0.4264 c 9.4538,-0.3162 13.5858,-0.8682 15.9831,-2.1352 z m -40.7331,6.3251 0,-40 18.4508,0 c 20.906,0 26.7421,0.9083 32.4627,5.0523 5.9718,4.3259 7.5586,7.9888 7.5586,17.4477 0,12.1581 -4.444,18.1659 -15.3541,20.7576 -3.0254,0.7186 -4.9698,1.6863 -4.7162,2.3471 0.2373,0.6184 5.194,8.41 11.0148,17.3146 5.8209,8.9046 10.5834,16.4121 10.5834,16.6832 0,0.2711 -2.8013,0.359 -6.2251,0.1952 l -6.225,-0.2977 -10.9699,-17.25 -10.9699,-17.25 -6.8051,0 -6.805,0 0,17.5 0,17.5 -6,0 -6,0 0,-40 z" style="fill:#e02e2a;fill-opacity:1" id="path2836"/>
      <path id="path2834" d="m -1204.5714,1916.4336 0,-316.5 -157.5,0 -157.5,0 0,-158 0,-158 472.5,0 472.49997,0 0,158 0,158 -157,0 -157,0 0,316.5 0,316.5 -157.99997,0 -158,0 0,-316.5 z" style="fill:#696a6c;fill-opacity:1"/>
      <path id="path2830" d="m -573.57143,1916.4336 0,-316.5 278,0 278.000004,0 0,-156.5 0,-156.5 157.999996,0 158,0 0,473 0,473 -158,0 -157.999996,0 0,-159 0,-159 -120.000004,0 -120,0 0,159 0,159 -158,0 -158,0 0,-316.5 z" style="fill:#696a6c;fill-opacity:1"/>
    </g>
  </g>
</svg>